# xmcd
#
# Track frame offsets:
#	150
#	11540
#	25590
#	37166
#	49985
#	67553
#	76878
#	87628
#	109466
#	138023
#	148460
#	161113
#	175988
#	189193
#	199083
#	211266
#	220561
#	234319
#	247124
#	256249
#	269731
#	280318
#	291793
#	306396
#	325841
#	334786
#
# Disc length: 4650 seconds
#
# Revision: 0
# Processed by: cddbd v1.5.2PL0 Copyright (c) Steve Scherf et al.
# Submitted via: EasyCDDAExtractor 16.0.6.1
#
DISCID=8712281a
DTITLE=Various Artist - テネシー・ワルツとカントリー・アンド・ウェスタン
DYEAR=2005
DGENRE=
TTITLE0=江利ちえみ - テネシー・ワルツ
TTITLE1=Patti page - Tennessee Waltz
TTITLE2=Eva Cassidy - Tennessee Waltz
TTITLE3=Anne Murray - Tennessee Waltz
TTITLE4=Keiko Lee - Tennessee Waltz
TTITLE5=Pat Boone - Tennessee Waltz
TTITLE6=Porter Wagoner - Tennessee Waltz
TTITLE7=Cassandra Wilson and Jacky Terrasson - Tennessee Waltz
TTITLE8=Sonny Rollins, Saxophon - Tennessee Waltz
TTITLE9=Marilyn Monroe - 帰らざる河
TTITLE10=Deen Martin - ライフルと愛馬
TTITLE11=Tex Ritter - 思い出のグリーングラス
TTITLE12=The Brothers Four - 遥かなるアラモ
TTITLE13=Frankie Laine - ＯＫ牧場の決闘
TTITLE14=Frankie Laine - ハイ・ヌーン
TTITLE15=Frankie Laine - ロー・ハイドのテーマ曲
TTITLE16=Patti Page - Mockingbird Hill
TTITLE17=Mitch Miller and The Gang Orchestra - 黄色いリボン
TTITLE18=Anne Murray - ジャンバラヤ
TTITLE19=Peggy Lee - ジャニー・ギター
TTITLE20=Tex Ritter - 北風
TTITLE21=小坂一也 - １６トン
TTITLE22=John Denver - Take Me Home Country Roads
TTITLE23=Ray Charles - 愛さずにはいられない
TTITLE24=小坂一也 - ロー・ハイド
TTITLE25=小坂一也 - 遥かなるアラモ
EXTD=
EXTT0=
EXTT1=
EXTT2=
EXTT3=
EXTT4=
EXTT5=
EXTT6=
EXTT7=
EXTT8=
EXTT9=
EXTT10=
EXTT11=
EXTT12=
EXTT13=
EXTT14=
EXTT15=
EXTT16=
EXTT17=
EXTT18=
EXTT19=
EXTT20=
EXTT21=
EXTT22=
EXTT23=
EXTT24=
EXTT25=
PLAYORDER=
